<?xml version="1.0" encoding="UTF-8" standalone="no"?>
<!DOCTYPE svg PUBLIC "-//W3C//DTD SVG 1.1//EN"
 "http://www.w3.org/Graphics/SVG/1.1/DTD/svg11.dtd">
<!-- Generated by graphviz version 2.40.1 (0)
 -->
<!-- Title: %3 Pages: 1 -->
<svg width="1420pt" height="421pt"
 viewBox="0.00 0.00 1420.00 421.00" xmlns="http://www.w3.org/2000/svg" xmlns:xlink="http://www.w3.org/1999/xlink">
<g id="graph0" class="graph" transform="scale(1 1) rotate(0) translate(4 417)">
<title>%3</title>
<polygon fill="#ffffff" stroke="transparent" points="-4,4 -4,-417 1416,-417 1416,4 -4,4"/>
<g id="clust1" class="cluster">
<title>cluster__samsung_pit</title>
<polygon fill="none" stroke="#000000" stroke-dasharray="1,5" points="179,-44 179,-405 1404,-405 1404,-44 179,-44"/>
<text text-anchor="middle" x="791.5" y="-389.8" font-family="Times,serif" font-size="14.00" fill="#000000">SamsungPit</text>
</g>
<g id="clust2" class="cluster">
<title>cluster__attributes</title>
<polygon fill="none" stroke="#000000" stroke-dasharray="1,5" points="929,-52 929,-209 1381.5,-209 1381.5,-52 929,-52"/>
<text text-anchor="middle" x="1155.25" y="-193.8" font-family="Times,serif" font-size="14.00" fill="#000000">SamsungPit::Attributes</text>
</g>
<g id="clust3" class="cluster">
<title>cluster__update_attributes</title>
<polygon fill="none" stroke="#000000" stroke-dasharray="1,5" points="929,-217 929,-374 1396,-374 1396,-217 929,-217"/>
<text text-anchor="middle" x="1162.5" y="-358.8" font-family="Times,serif" font-size="14.00" fill="#000000">SamsungPit::UpdateAttributes</text>
</g>
<g id="clust4" class="cluster">
<title>cluster__partition</title>
<polygon fill="none" stroke="#000000" stroke-dasharray="1,5" points="530,-52 530,-373 909,-373 909,-52 530,-52"/>
<text text-anchor="middle" x="719.5" y="-357.8" font-family="Times,serif" font-size="14.00" fill="#000000">SamsungPit::Partition</text>
</g>
<!-- samsung_pit__seq -->
<g id="node1" class="node">
<title>samsung_pit__seq</title>
<polygon fill="#e0ffe0" stroke="transparent" points="195.5,-291 195.5,-312 226.5,-312 226.5,-291 195.5,-291"/>
<polygon fill="none" stroke="#000000" points="195.5,-291 195.5,-312 226.5,-312 226.5,-291 195.5,-291"/>
<text text-anchor="start" x="198.5" y="-297.8" font-family="Times,serif" font-size="14.00" fill="#000000">pos</text>
<polygon fill="#e0ffe0" stroke="transparent" points="226.5,-291 226.5,-312 260.5,-312 260.5,-291 226.5,-291"/>
<polygon fill="none" stroke="#000000" points="226.5,-291 226.5,-312 260.5,-312 260.5,-291 226.5,-291"/>
<text text-anchor="start" x="229.5" y="-297.8" font-family="Times,serif" font-size="14.00" fill="#000000">size</text>
<polygon fill="#e0ffe0" stroke="transparent" points="260.5,-291 260.5,-312 403.5,-312 403.5,-291 260.5,-291"/>
<polygon fill="none" stroke="#000000" points="260.5,-291 260.5,-312 403.5,-312 403.5,-291 260.5,-291"/>
<text text-anchor="start" x="316" y="-297.8" font-family="Times,serif" font-size="14.00" fill="#000000">type</text>
<polygon fill="#e0ffe0" stroke="transparent" points="403.5,-291 403.5,-312 494.5,-312 494.5,-291 403.5,-291"/>
<polygon fill="none" stroke="#000000" points="403.5,-291 403.5,-312 494.5,-312 494.5,-291 403.5,-291"/>
<text text-anchor="start" x="442" y="-297.8" font-family="Times,serif" font-size="14.00" fill="#000000">id</text>
<polygon fill="none" stroke="#000000" points="195.5,-270 195.5,-291 226.5,-291 226.5,-270 195.5,-270"/>
<text text-anchor="start" x="206" y="-276.8" font-family="Times,serif" font-size="14.00" fill="#000000">0</text>
<polygon fill="none" stroke="#000000" points="226.5,-270 226.5,-291 260.5,-291 260.5,-270 226.5,-270"/>
<text text-anchor="start" x="238.5" y="-276.8" font-family="Times,serif" font-size="14.00" fill="#000000">4</text>
<polygon fill="none" stroke="#000000" points="260.5,-270 260.5,-291 403.5,-291 403.5,-270 260.5,-270"/>
<text text-anchor="start" x="289" y="-276.8" font-family="Times,serif" font-size="14.00" fill="#000000">76 98 34 12</text>
<polygon fill="none" stroke="#000000" points="403.5,-270 403.5,-291 494.5,-291 494.5,-270 403.5,-270"/>
<text text-anchor="start" x="427.5" y="-276.8" font-family="Times,serif" font-size="14.00" fill="#000000">magic</text>
<polygon fill="none" stroke="#000000" points="195.5,-249 195.5,-270 226.5,-270 226.5,-249 195.5,-249"/>
<text text-anchor="start" x="206" y="-255.8" font-family="Times,serif" font-size="14.00" fill="#000000">4</text>
<polygon fill="none" stroke="#000000" points="226.5,-249 226.5,-270 260.5,-270 260.5,-249 226.5,-249"/>
<text text-anchor="start" x="238.5" y="-255.8" font-family="Times,serif" font-size="14.00" fill="#000000">4</text>
<polygon fill="none" stroke="#000000" points="260.5,-249 260.5,-270 403.5,-270 403.5,-249 260.5,-249"/>
<text text-anchor="start" x="316.5" y="-255.8" font-family="Times,serif" font-size="14.00" fill="#000000">u4le</text>
<polygon fill="none" stroke="#000000" points="403.5,-249 403.5,-270 494.5,-270 494.5,-249 403.5,-249"/>
<text text-anchor="start" x="406.5" y="-255.8" font-family="Times,serif" font-size="14.00" fill="#000000">entry_count</text>
<polygon fill="none" stroke="#000000" points="195.5,-228 195.5,-249 226.5,-249 226.5,-228 195.5,-228"/>
<text text-anchor="start" x="206" y="-234.8" font-family="Times,serif" font-size="14.00" fill="#000000">8</text>
<polygon fill="none" stroke="#000000" points="226.5,-228 226.5,-249 260.5,-249 260.5,-228 226.5,-228"/>
<text text-anchor="start" x="238.5" y="-234.8" font-family="Times,serif" font-size="14.00" fill="#000000">4</text>
<polygon fill="none" stroke="#000000" points="260.5,-228 260.5,-249 403.5,-249 403.5,-228 260.5,-228"/>
<text text-anchor="start" x="296" y="-234.8" font-family="Times,serif" font-size="14.00" fill="#000000">str(ASCII)</text>
<polygon fill="none" stroke="#000000" points="403.5,-228 403.5,-249 494.5,-249 494.5,-228 403.5,-228"/>
<text text-anchor="start" x="433.5" y="-234.8" font-family="Times,serif" font-size="14.00" fill="#000000">port</text>
<polygon fill="none" stroke="#000000" points="195.5,-207 195.5,-228 226.5,-228 226.5,-207 195.5,-207"/>
<text text-anchor="start" x="201.5" y="-213.8" font-family="Times,serif" font-size="14.00" fill="#000000">12</text>
<polygon fill="none" stroke="#000000" points="226.5,-207 226.5,-228 260.5,-228 260.5,-207 226.5,-207"/>
<text text-anchor="start" x="238.5" y="-213.8" font-family="Times,serif" font-size="14.00" fill="#000000">4</text>
<polygon fill="none" stroke="#000000" points="260.5,-207 260.5,-228 403.5,-228 403.5,-207 260.5,-207"/>
<text text-anchor="start" x="296" y="-213.8" font-family="Times,serif" font-size="14.00" fill="#000000">str(ASCII)</text>
<polygon fill="none" stroke="#000000" points="403.5,-207 403.5,-228 494.5,-228 494.5,-207 403.5,-207"/>
<text text-anchor="start" x="424.5" y="-213.8" font-family="Times,serif" font-size="14.00" fill="#000000">format</text>
<polygon fill="none" stroke="#000000" points="195.5,-186 195.5,-207 226.5,-207 226.5,-186 195.5,-186"/>
<text text-anchor="start" x="201.5" y="-192.8" font-family="Times,serif" font-size="14.00" fill="#000000">16</text>
<polygon fill="none" stroke="#000000" points="226.5,-186 226.5,-207 260.5,-207 260.5,-186 226.5,-186"/>
<text text-anchor="start" x="238.5" y="-192.8" font-family="Times,serif" font-size="14.00" fill="#000000">8</text>
<polygon fill="none" stroke="#000000" points="260.5,-186 260.5,-207 403.5,-207 403.5,-186 260.5,-186"/>
<text text-anchor="start" x="296" y="-192.8" font-family="Times,serif" font-size="14.00" fill="#000000">str(ASCII)</text>
<polygon fill="none" stroke="#000000" points="403.5,-186 403.5,-207 494.5,-207 494.5,-186 403.5,-186"/>
<text text-anchor="start" x="433.5" y="-192.8" font-family="Times,serif" font-size="14.00" fill="#000000">chip</text>
<polygon fill="none" stroke="#000000" points="195.5,-165 195.5,-186 226.5,-186 226.5,-165 195.5,-165"/>
<text text-anchor="start" x="201.5" y="-171.8" font-family="Times,serif" font-size="14.00" fill="#000000">24</text>
<polygon fill="none" stroke="#000000" points="226.5,-165 226.5,-186 260.5,-186 260.5,-165 226.5,-165"/>
<text text-anchor="start" x="238.5" y="-171.8" font-family="Times,serif" font-size="14.00" fill="#000000">4</text>
<polygon fill="none" stroke="#000000" points="260.5,-165 260.5,-186 403.5,-186 403.5,-165 260.5,-165"/>
<text text-anchor="start" x="316.5" y="-171.8" font-family="Times,serif" font-size="14.00" fill="#000000">u4le</text>
<polygon fill="none" stroke="#000000" points="403.5,-165 403.5,-186 494.5,-186 494.5,-165 403.5,-165"/>
<text text-anchor="start" x="412" y="-171.8" font-family="Times,serif" font-size="14.00" fill="#000000">unknown4</text>
<polygon fill="none" stroke="#000000" points="195.5,-144 195.5,-165 226.5,-165 226.5,-144 195.5,-144"/>
<text text-anchor="start" x="201.5" y="-150.8" font-family="Times,serif" font-size="14.00" fill="#000000">28</text>
<polygon fill="none" stroke="#000000" points="226.5,-144 226.5,-165 260.5,-165 260.5,-144 226.5,-144"/>
<text text-anchor="start" x="229.5" y="-150.8" font-family="Times,serif" font-size="14.00" fill="#000000">132</text>
<polygon fill="none" stroke="#000000" points="260.5,-144 260.5,-165 403.5,-165 403.5,-144 260.5,-144"/>
<text text-anchor="start" x="300.5" y="-150.8" font-family="Times,serif" font-size="14.00" fill="#000000">Partition</text>
<polygon fill="none" stroke="#000000" points="403.5,-144 403.5,-165 494.5,-165 494.5,-144 403.5,-144"/>
<text text-anchor="start" x="414" y="-150.8" font-family="Times,serif" font-size="14.00" fill="#000000">partitions</text>
<polygon fill="none" stroke="#000000" points="195.5,-123 195.5,-144 494.5,-144 494.5,-123 195.5,-123"/>
<text text-anchor="start" x="254.5" y="-129.8" font-family="Times,serif" font-size="14.00" fill="#000000">repeat entry_count times</text>
<polygon fill="none" stroke="#000000" points="195.5,-102 195.5,-123 226.5,-123 226.5,-102 195.5,-102"/>
<text text-anchor="start" x="204" y="-108.8" font-family="Times,serif" font-size="14.00" fill="#000000">...</text>
<polygon fill="none" stroke="#000000" points="226.5,-102 226.5,-123 260.5,-123 260.5,-102 226.5,-102"/>
<text text-anchor="start" x="238.5" y="-108.8" font-family="Times,serif" font-size="14.00" fill="#000000">0</text>
<polygon fill="none" stroke="#000000" points="260.5,-102 260.5,-123 403.5,-123 403.5,-102 260.5,-102"/>
<text text-anchor="start" x="263.5" y="-108.8" font-family="Times,serif" font-size="14.00" fill="#000000">SamsungSignature</text>
<polygon fill="none" stroke="#000000" points="403.5,-102 403.5,-123 494.5,-123 494.5,-102 403.5,-102"/>
<text text-anchor="start" x="414.5" y="-108.8" font-family="Times,serif" font-size="14.00" fill="#000000">signature</text>
</g>
<!-- samsung_pit__seq&#45;&gt;samsung_pit__seq -->
<g id="edge2" class="edge">
<title>samsung_pit__seq:entry_count_type&#45;&gt;samsung_pit__seq:partitions__repeat</title>
<path fill="none" stroke="#404040" d="M403.2786,-262.6018C263.7183,-268.0856 0,-260.8579 0,-196.5 0,-151.3003 89.6562,-134.2801 185.004,-130.0519"/>
<polygon fill="#404040" stroke="#404040" points="185.2909,-133.5434 195.1445,-129.6504 185.0139,-126.5489 185.2909,-133.5434"/>
</g>
<!-- partition__seq -->
<g id="node9" class="node">
<title>partition__seq</title>
<polygon fill="#e0ffe0" stroke="transparent" points="546.5,-316 546.5,-337 580.5,-337 580.5,-316 546.5,-316"/>
<polygon fill="none" stroke="#000000" points="546.5,-316 546.5,-337 580.5,-337 580.5,-316 546.5,-316"/>
<text text-anchor="start" x="551" y="-322.8" font-family="Times,serif" font-size="14.00" fill="#000000">pos</text>
<polygon fill="#e0ffe0" stroke="transparent" points="580.5,-316 580.5,-337 614.5,-337 614.5,-316 580.5,-316"/>
<polygon fill="none" stroke="#000000" points="580.5,-316 580.5,-337 614.5,-337 614.5,-316 580.5,-316"/>
<text text-anchor="start" x="583.5" y="-322.8" font-family="Times,serif" font-size="14.00" fill="#000000">size</text>
<polygon fill="#e0ffe0" stroke="transparent" points="614.5,-316 614.5,-337 746.5,-337 746.5,-316 614.5,-316"/>
<polygon fill="none" stroke="#000000" points="614.5,-316 614.5,-337 746.5,-337 746.5,-316 614.5,-316"/>
<text text-anchor="start" x="664.5" y="-322.8" font-family="Times,serif" font-size="14.00" fill="#000000">type</text>
<polygon fill="#e0ffe0" stroke="transparent" points="746.5,-316 746.5,-337 893.5,-337 893.5,-316 746.5,-316"/>
<polygon fill="none" stroke="#000000" points="746.5,-316 746.5,-337 893.5,-337 893.5,-316 746.5,-316"/>
<text text-anchor="start" x="813" y="-322.8" font-family="Times,serif" font-size="14.00" fill="#000000">id</text>
<polygon fill="none" stroke="#000000" points="546.5,-295 546.5,-316 580.5,-316 580.5,-295 546.5,-295"/>
<text text-anchor="start" x="558.5" y="-301.8" font-family="Times,serif" font-size="14.00" fill="#000000">0</text>
<polygon fill="none" stroke="#000000" points="580.5,-295 580.5,-316 614.5,-316 614.5,-295 580.5,-295"/>
<text text-anchor="start" x="592.5" y="-301.8" font-family="Times,serif" font-size="14.00" fill="#000000">4</text>
<polygon fill="none" stroke="#000000" points="614.5,-295 614.5,-316 746.5,-316 746.5,-295 614.5,-295"/>
<text text-anchor="start" x="618" y="-301.8" font-family="Times,serif" font-size="14.00" fill="#000000">u4le→BinaryType</text>
<polygon fill="none" stroke="#000000" points="746.5,-295 746.5,-316 893.5,-316 893.5,-295 746.5,-295"/>
<text text-anchor="start" x="777.5" y="-301.8" font-family="Times,serif" font-size="14.00" fill="#000000">binary_type</text>
<polygon fill="none" stroke="#000000" points="546.5,-274 546.5,-295 580.5,-295 580.5,-274 546.5,-274"/>
<text text-anchor="start" x="558.5" y="-280.8" font-family="Times,serif" font-size="14.00" fill="#000000">4</text>
<polygon fill="none" stroke="#000000" points="580.5,-274 580.5,-295 614.5,-295 614.5,-274 580.5,-274"/>
<text text-anchor="start" x="592.5" y="-280.8" font-family="Times,serif" font-size="14.00" fill="#000000">4</text>
<polygon fill="none" stroke="#000000" points="614.5,-274 614.5,-295 746.5,-295 746.5,-274 614.5,-274"/>
<text text-anchor="start" x="617.5" y="-280.8" font-family="Times,serif" font-size="14.00" fill="#000000">u4le→DeviceType</text>
<polygon fill="none" stroke="#000000" points="746.5,-274 746.5,-295 893.5,-295 893.5,-274 746.5,-274"/>
<text text-anchor="start" x="777.5" y="-280.8" font-family="Times,serif" font-size="14.00" fill="#000000">device_type</text>
<polygon fill="none" stroke="#000000" points="546.5,-253 546.5,-274 580.5,-274 580.5,-253 546.5,-253"/>
<text text-anchor="start" x="558.5" y="-259.8" font-family="Times,serif" font-size="14.00" fill="#000000">8</text>
<polygon fill="none" stroke="#000000" points="580.5,-253 580.5,-274 614.5,-274 614.5,-253 580.5,-253"/>
<text text-anchor="start" x="592.5" y="-259.8" font-family="Times,serif" font-size="14.00" fill="#000000">4</text>
<polygon fill="none" stroke="#000000" points="614.5,-253 614.5,-274 746.5,-274 746.5,-253 614.5,-253"/>
<text text-anchor="start" x="665" y="-259.8" font-family="Times,serif" font-size="14.00" fill="#000000">u4le</text>
<polygon fill="none" stroke="#000000" points="746.5,-253 746.5,-274 893.5,-274 893.5,-253 746.5,-253"/>
<text text-anchor="start" x="787" y="-259.8" font-family="Times,serif" font-size="14.00" fill="#000000">identifier</text>
<polygon fill="none" stroke="#000000" points="546.5,-232 546.5,-253 580.5,-253 580.5,-232 546.5,-232"/>
<text text-anchor="start" x="554" y="-238.8" font-family="Times,serif" font-size="14.00" fill="#000000">12</text>
<polygon fill="none" stroke="#000000" points="580.5,-232 580.5,-253 614.5,-253 614.5,-232 580.5,-232"/>
<text text-anchor="start" x="592.5" y="-238.8" font-family="Times,serif" font-size="14.00" fill="#000000">4</text>
<polygon fill="none" stroke="#000000" points="614.5,-232 614.5,-253 746.5,-253 746.5,-232 614.5,-232"/>
<text text-anchor="start" x="644" y="-238.8" font-family="Times,serif" font-size="14.00" fill="#000000">Attributes</text>
<polygon fill="none" stroke="#000000" points="746.5,-232 746.5,-253 893.5,-253 893.5,-232 746.5,-232"/>
<text text-anchor="start" x="784" y="-238.8" font-family="Times,serif" font-size="14.00" fill="#000000">attributes</text>
<polygon fill="none" stroke="#000000" points="546.5,-211 546.5,-232 580.5,-232 580.5,-211 546.5,-211"/>
<text text-anchor="start" x="554" y="-217.8" font-family="Times,serif" font-size="14.00" fill="#000000">16</text>
<polygon fill="none" stroke="#000000" points="580.5,-211 580.5,-232 614.5,-232 614.5,-211 580.5,-211"/>
<text text-anchor="start" x="592.5" y="-217.8" font-family="Times,serif" font-size="14.00" fill="#000000">4</text>
<polygon fill="none" stroke="#000000" points="614.5,-211 614.5,-232 746.5,-232 746.5,-211 614.5,-211"/>
<text text-anchor="start" x="617.5" y="-217.8" font-family="Times,serif" font-size="14.00" fill="#000000">UpdateAttributes</text>
<polygon fill="none" stroke="#000000" points="746.5,-211 746.5,-232 893.5,-232 893.5,-211 746.5,-211"/>
<text text-anchor="start" x="756" y="-217.8" font-family="Times,serif" font-size="14.00" fill="#000000">update_attributes</text>
<polygon fill="none" stroke="#000000" points="546.5,-190 546.5,-211 580.5,-211 580.5,-190 546.5,-190"/>
<text text-anchor="start" x="554" y="-196.8" font-family="Times,serif" font-size="14.00" fill="#000000">20</text>
<polygon fill="none" stroke="#000000" points="580.5,-190 580.5,-211 614.5,-211 614.5,-190 580.5,-190"/>
<text text-anchor="start" x="592.5" y="-196.8" font-family="Times,serif" font-size="14.00" fill="#000000">4</text>
<polygon fill="none" stroke="#000000" points="614.5,-190 614.5,-211 746.5,-211 746.5,-190 614.5,-190"/>
<text text-anchor="start" x="665" y="-196.8" font-family="Times,serif" font-size="14.00" fill="#000000">u4le</text>
<polygon fill="none" stroke="#000000" points="746.5,-190 746.5,-211 893.5,-211 893.5,-190 746.5,-190"/>
<text text-anchor="start" x="749.5" y="-196.8" font-family="Times,serif" font-size="14.00" fill="#000000">block_size_or_offset</text>
<polygon fill="none" stroke="#000000" points="546.5,-169 546.5,-190 580.5,-190 580.5,-169 546.5,-169"/>
<text text-anchor="start" x="554" y="-175.8" font-family="Times,serif" font-size="14.00" fill="#000000">24</text>
<polygon fill="none" stroke="#000000" points="580.5,-169 580.5,-190 614.5,-190 614.5,-169 580.5,-169"/>
<text text-anchor="start" x="592.5" y="-175.8" font-family="Times,serif" font-size="14.00" fill="#000000">4</text>
<polygon fill="none" stroke="#000000" points="614.5,-169 614.5,-190 746.5,-190 746.5,-169 614.5,-169"/>
<text text-anchor="start" x="665" y="-175.8" font-family="Times,serif" font-size="14.00" fill="#000000">u4le</text>
<polygon fill="none" stroke="#000000" points="746.5,-169 746.5,-190 893.5,-190 893.5,-169 746.5,-169"/>
<text text-anchor="start" x="777.5" y="-175.8" font-family="Times,serif" font-size="14.00" fill="#000000">block_count</text>
<polygon fill="none" stroke="#000000" points="546.5,-148 546.5,-169 580.5,-169 580.5,-148 546.5,-148"/>
<text text-anchor="start" x="554" y="-154.8" font-family="Times,serif" font-size="14.00" fill="#000000">28</text>
<polygon fill="none" stroke="#000000" points="580.5,-148 580.5,-169 614.5,-169 614.5,-148 580.5,-148"/>
<text text-anchor="start" x="592.5" y="-154.8" font-family="Times,serif" font-size="14.00" fill="#000000">4</text>
<polygon fill="none" stroke="#000000" points="614.5,-148 614.5,-169 746.5,-169 746.5,-148 614.5,-148"/>
<text text-anchor="start" x="665" y="-154.8" font-family="Times,serif" font-size="14.00" fill="#000000">u4le</text>
<polygon fill="none" stroke="#000000" points="746.5,-148 746.5,-169 893.5,-169 893.5,-148 746.5,-148"/>
<text text-anchor="start" x="785.5" y="-154.8" font-family="Times,serif" font-size="14.00" fill="#000000">file_offset</text>
<polygon fill="none" stroke="#000000" points="546.5,-127 546.5,-148 580.5,-148 580.5,-127 546.5,-127"/>
<text text-anchor="start" x="554" y="-133.8" font-family="Times,serif" font-size="14.00" fill="#000000">32</text>
<polygon fill="none" stroke="#000000" points="580.5,-127 580.5,-148 614.5,-148 614.5,-127 580.5,-127"/>
<text text-anchor="start" x="592.5" y="-133.8" font-family="Times,serif" font-size="14.00" fill="#000000">4</text>
<polygon fill="none" stroke="#000000" points="614.5,-127 614.5,-148 746.5,-148 746.5,-127 614.5,-127"/>
<text text-anchor="start" x="665" y="-133.8" font-family="Times,serif" font-size="14.00" fill="#000000">u4le</text>
<polygon fill="none" stroke="#000000" points="746.5,-127 746.5,-148 893.5,-148 893.5,-127 746.5,-127"/>
<text text-anchor="start" x="791.5" y="-133.8" font-family="Times,serif" font-size="14.00" fill="#000000">file_size</text>
<polygon fill="none" stroke="#000000" points="546.5,-106 546.5,-127 580.5,-127 580.5,-106 546.5,-106"/>
<text text-anchor="start" x="554" y="-112.8" font-family="Times,serif" font-size="14.00" fill="#000000">36</text>
<polygon fill="none" stroke="#000000" points="580.5,-106 580.5,-127 614.5,-127 614.5,-106 580.5,-106"/>
<text text-anchor="start" x="588" y="-112.8" font-family="Times,serif" font-size="14.00" fill="#000000">32</text>
<polygon fill="none" stroke="#000000" points="614.5,-106 614.5,-127 746.5,-127 746.5,-106 614.5,-106"/>
<text text-anchor="start" x="644.5" y="-112.8" font-family="Times,serif" font-size="14.00" fill="#000000">str(ASCII)</text>
<polygon fill="none" stroke="#000000" points="746.5,-106 746.5,-127 893.5,-127 893.5,-106 746.5,-106"/>
<text text-anchor="start" x="765.5" y="-112.8" font-family="Times,serif" font-size="14.00" fill="#000000">partition_name</text>
<polygon fill="none" stroke="#000000" points="546.5,-85 546.5,-106 580.5,-106 580.5,-85 546.5,-85"/>
<text text-anchor="start" x="554" y="-91.8" font-family="Times,serif" font-size="14.00" fill="#000000">68</text>
<polygon fill="none" stroke="#000000" points="580.5,-85 580.5,-106 614.5,-106 614.5,-85 580.5,-85"/>
<text text-anchor="start" x="588" y="-91.8" font-family="Times,serif" font-size="14.00" fill="#000000">32</text>
<polygon fill="none" stroke="#000000" points="614.5,-85 614.5,-106 746.5,-106 746.5,-85 614.5,-85"/>
<text text-anchor="start" x="644.5" y="-91.8" font-family="Times,serif" font-size="14.00" fill="#000000">str(ASCII)</text>
<polygon fill="none" stroke="#000000" points="746.5,-85 746.5,-106 893.5,-106 893.5,-85 746.5,-85"/>
<text text-anchor="start" x="769" y="-91.8" font-family="Times,serif" font-size="14.00" fill="#000000">flash_filename</text>
<polygon fill="none" stroke="#000000" points="546.5,-64 546.5,-85 580.5,-85 580.5,-64 546.5,-64"/>
<text text-anchor="start" x="549.5" y="-70.8" font-family="Times,serif" font-size="14.00" fill="#000000">100</text>
<polygon fill="none" stroke="#000000" points="580.5,-64 580.5,-85 614.5,-85 614.5,-64 580.5,-64"/>
<text text-anchor="start" x="588" y="-70.8" font-family="Times,serif" font-size="14.00" fill="#000000">32</text>
<polygon fill="none" stroke="#000000" points="614.5,-64 614.5,-85 746.5,-85 746.5,-64 614.5,-64"/>
<text text-anchor="start" x="644.5" y="-70.8" font-family="Times,serif" font-size="14.00" fill="#000000">str(ASCII)</text>
<polygon fill="none" stroke="#000000" points="746.5,-64 746.5,-85 893.5,-85 893.5,-64 746.5,-64"/>
<text text-anchor="start" x="772" y="-70.8" font-family="Times,serif" font-size="14.00" fill="#000000">fota_filename</text>
</g>
<!-- samsung_pit__seq&#45;&gt;partition__seq -->
<g id="edge1" class="edge">
<title>samsung_pit__seq:partitions_type&#45;&gt;partition__seq</title>
<path fill="none" stroke="#000000" stroke-width="2" d="M494.5,-154C505.3462,-154 516.4256,-154.5298 527.5663,-155.4769"/>
<polygon fill="#000000" stroke="#000000" stroke-width="2" points="527.5211,-158.9886 537.81,-156.4607 528.1904,-152.0206 527.5211,-158.9886"/>
</g>
<!-- samsung_signature__seq -->
<g id="node10" class="node">
<title>samsung_signature__seq</title>
<text text-anchor="middle" x="719.5" y="-14.3" font-family="Times,serif" font-size="14.00" fill="#000000">samsung_signature__seq</text>
</g>
<!-- samsung_pit__seq&#45;&gt;samsung_signature__seq -->
<g id="edge3" class="edge">
<title>samsung_pit__seq:signature_type&#45;&gt;samsung_signature__seq</title>
<path fill="none" stroke="#000000" stroke-width="2" d="M494.5,-112C527.0273,-112 503.3518,-66.6521 530,-48 553.8002,-31.3413 583.3787,-22.5514 612.0358,-18.2023"/>
<polygon fill="#000000" stroke="#000000" stroke-width="2" points="612.6795,-21.6472 622.1227,-16.8435 611.7449,-14.7099 612.6795,-21.6472"/>
</g>
<!-- attributes__seq -->
<g id="node2" class="node">
<title>attributes__seq</title>
<polygon fill="#e0ffe0" stroke="transparent" points="945,-153 945,-174 976,-174 976,-153 945,-153"/>
<polygon fill="none" stroke="#000000" points="945,-153 945,-174 976,-174 976,-153 945,-153"/>
<text text-anchor="start" x="948" y="-159.8" font-family="Times,serif" font-size="14.00" fill="#000000">pos</text>
<polygon fill="#e0ffe0" stroke="transparent" points="976,-153 976,-174 1010,-174 1010,-153 976,-153"/>
<polygon fill="none" stroke="#000000" points="976,-153 976,-174 1010,-174 1010,-153 976,-153"/>
<text text-anchor="start" x="979" y="-159.8" font-family="Times,serif" font-size="14.00" fill="#000000">size</text>
<polygon fill="#e0ffe0" stroke="transparent" points="1010,-153 1010,-174 1048,-174 1048,-153 1010,-153"/>
<polygon fill="none" stroke="#000000" points="1010,-153 1010,-174 1048,-174 1048,-153 1010,-153"/>
<text text-anchor="start" x="1013" y="-159.8" font-family="Times,serif" font-size="14.00" fill="#000000">type</text>
<polygon fill="#e0ffe0" stroke="transparent" points="1048,-153 1048,-174 1093,-174 1093,-153 1048,-153"/>
<polygon fill="none" stroke="#000000" points="1048,-153 1048,-174 1093,-174 1093,-153 1048,-153"/>
<text text-anchor="start" x="1063.5" y="-159.8" font-family="Times,serif" font-size="14.00" fill="#000000">id</text>
<polygon fill="none" stroke="#000000" points="945,-132 945,-153 976,-153 976,-132 945,-132"/>
<text text-anchor="start" x="955.5" y="-138.8" font-family="Times,serif" font-size="14.00" fill="#000000">0</text>
<polygon fill="none" stroke="#000000" points="976,-132 976,-153 1010,-153 1010,-132 976,-132"/>
<text text-anchor="start" x="988" y="-138.8" font-family="Times,serif" font-size="14.00" fill="#000000">4</text>
<polygon fill="none" stroke="#000000" points="1010,-132 1010,-153 1048,-153 1048,-132 1010,-132"/>
<text text-anchor="start" x="1013.5" y="-138.8" font-family="Times,serif" font-size="14.00" fill="#000000">u4le</text>
<polygon fill="none" stroke="#000000" points="1048,-132 1048,-153 1093,-153 1093,-132 1048,-132"/>
<text text-anchor="start" x="1051" y="-138.8" font-family="Times,serif" font-size="14.00" fill="#000000">value</text>
</g>
<!-- attributes__inst__write -->
<g id="node4" class="node">
<title>attributes__inst__write</title>
<polygon fill="#e0ffe0" stroke="transparent" points="1176.5,-85 1176.5,-106 1220.5,-106 1220.5,-85 1176.5,-85"/>
<polygon fill="none" stroke="#000000" points="1176.5,-85 1176.5,-106 1220.5,-106 1220.5,-85 1176.5,-85"/>
<text text-anchor="start" x="1191.5" y="-91.8" font-family="Times,serif" font-size="14.00" fill="#000000">id</text>
<polygon fill="#e0ffe0" stroke="transparent" points="1220.5,-85 1220.5,-106 1348.5,-106 1348.5,-85 1220.5,-85"/>
<polygon fill="none" stroke="#000000" points="1220.5,-85 1220.5,-106 1348.5,-106 1348.5,-85 1220.5,-85"/>
<text text-anchor="start" x="1265" y="-91.8" font-family="Times,serif" font-size="14.00" fill="#000000">value</text>
<polygon fill="none" stroke="#000000" points="1176.5,-64 1176.5,-85 1220.5,-85 1220.5,-64 1176.5,-64"/>
<text text-anchor="start" x="1179.5" y="-70.8" font-family="Times,serif" font-size="14.00" fill="#000000">write</text>
<polygon fill="none" stroke="#000000" points="1220.5,-64 1220.5,-85 1348.5,-85 1348.5,-64 1220.5,-64"/>
<text text-anchor="start" x="1223.5" y="-70.8" font-family="Times,serif" font-size="14.00" fill="#000000">(value &amp; 1) == 1</text>
</g>
<!-- attributes__seq&#45;&gt;attributes__inst__write -->
<g id="edge4" class="edge">
<title>attributes__seq:value_type&#45;&gt;attributes__inst__write</title>
<path fill="none" stroke="#404040" d="M1093,-142C1115.0661,-142 1116.4521,-127.0435 1137,-119 1143.8645,-116.3129 1151.0199,-113.7581 1158.2802,-111.3455"/>
<polygon fill="#404040" stroke="#404040" points="1159.7808,-114.5395 1168.2283,-108.1448 1157.6368,-107.8759 1159.7808,-114.5395"/>
</g>
<!-- attributes__inst__stl -->
<g id="node5" class="node">
<title>attributes__inst__stl</title>
<polygon fill="#e0ffe0" stroke="transparent" points="1159.5,-153 1159.5,-174 1184.5,-174 1184.5,-153 1159.5,-153"/>
<polygon fill="none" stroke="#000000" points="1159.5,-153 1159.5,-174 1184.5,-174 1184.5,-153 1159.5,-153"/>
<text text-anchor="start" x="1165" y="-159.8" font-family="Times,serif" font-size="14.00" fill="#000000">id</text>
<polygon fill="#e0ffe0" stroke="transparent" points="1184.5,-153 1184.5,-174 1365.5,-174 1365.5,-153 1184.5,-153"/>
<polygon fill="none" stroke="#000000" points="1184.5,-153 1184.5,-174 1365.5,-174 1365.5,-153 1184.5,-153"/>
<text text-anchor="start" x="1255.5" y="-159.8" font-family="Times,serif" font-size="14.00" fill="#000000">value</text>
<polygon fill="none" stroke="#000000" points="1159.5,-132 1159.5,-153 1184.5,-153 1184.5,-132 1159.5,-132"/>
<text text-anchor="start" x="1162.5" y="-138.8" font-family="Times,serif" font-size="14.00" fill="#000000">stl</text>
<polygon fill="none" stroke="#000000" points="1184.5,-132 1184.5,-153 1365.5,-153 1365.5,-132 1184.5,-132"/>
<text text-anchor="start" x="1187.5" y="-138.8" font-family="Times,serif" font-size="14.00" fill="#000000">(value &amp; (1 &lt;&lt; 1)) == 2</text>
</g>
<!-- attributes__seq&#45;&gt;attributes__inst__stl -->
<g id="edge5" class="edge">
<title>attributes__seq:value_type&#45;&gt;attributes__inst__stl</title>
<path fill="none" stroke="#404040" d="M1093,-142C1108.6292,-142 1125.052,-142.4715 1141.2699,-143.2192"/>
<polygon fill="#404040" stroke="#404040" points="1141.1712,-146.7185 1151.3325,-143.7188 1141.5183,-139.7271 1141.1712,-146.7185"/>
</g>
<!-- attributes__inst__read -->
<g id="node3" class="node">
<title>attributes__inst__read</title>
<polygon fill="#e0ffe0" stroke="transparent" points="977,-85 977,-106 1016,-106 1016,-85 977,-85"/>
<polygon fill="none" stroke="#000000" points="977,-85 977,-106 1016,-106 1016,-85 977,-85"/>
<text text-anchor="start" x="989.5" y="-91.8" font-family="Times,serif" font-size="14.00" fill="#000000">id</text>
<polygon fill="#e0ffe0" stroke="transparent" points="1016,-85 1016,-106 1061,-106 1061,-85 1016,-85"/>
<polygon fill="none" stroke="#000000" points="1016,-85 1016,-106 1061,-106 1061,-85 1016,-85"/>
<text text-anchor="start" x="1019" y="-91.8" font-family="Times,serif" font-size="14.00" fill="#000000">value</text>
<polygon fill="none" stroke="#000000" points="977,-64 977,-85 1016,-85 1016,-64 977,-64"/>
<text text-anchor="start" x="980" y="-70.8" font-family="Times,serif" font-size="14.00" fill="#000000">read</text>
<polygon fill="none" stroke="#000000" points="1016,-64 1016,-85 1061,-85 1061,-64 1016,-64"/>
<text text-anchor="start" x="1023" y="-70.8" font-family="Times,serif" font-size="14.00" fill="#000000">true</text>
</g>
<!-- update_attributes__seq -->
<g id="node6" class="node">
<title>update_attributes__seq</title>
<polygon fill="#e0ffe0" stroke="transparent" points="945,-261 945,-282 976,-282 976,-261 945,-261"/>
<polygon fill="none" stroke="#000000" points="945,-261 945,-282 976,-282 976,-261 945,-261"/>
<text text-anchor="start" x="948" y="-267.8" font-family="Times,serif" font-size="14.00" fill="#000000">pos</text>
<polygon fill="#e0ffe0" stroke="transparent" points="976,-261 976,-282 1010,-282 1010,-261 976,-261"/>
<polygon fill="none" stroke="#000000" points="976,-261 976,-282 1010,-282 1010,-261 976,-261"/>
<text text-anchor="start" x="979" y="-267.8" font-family="Times,serif" font-size="14.00" fill="#000000">size</text>
<polygon fill="#e0ffe0" stroke="transparent" points="1010,-261 1010,-282 1048,-282 1048,-261 1010,-261"/>
<polygon fill="none" stroke="#000000" points="1010,-261 1010,-282 1048,-282 1048,-261 1010,-261"/>
<text text-anchor="start" x="1013" y="-267.8" font-family="Times,serif" font-size="14.00" fill="#000000">type</text>
<polygon fill="#e0ffe0" stroke="transparent" points="1048,-261 1048,-282 1093,-282 1093,-261 1048,-261"/>
<polygon fill="none" stroke="#000000" points="1048,-261 1048,-282 1093,-282 1093,-261 1048,-261"/>
<text text-anchor="start" x="1063.5" y="-267.8" font-family="Times,serif" font-size="14.00" fill="#000000">id</text>
<polygon fill="none" stroke="#000000" points="945,-240 945,-261 976,-261 976,-240 945,-240"/>
<text text-anchor="start" x="955.5" y="-246.8" font-family="Times,serif" font-size="14.00" fill="#000000">0</text>
<polygon fill="none" stroke="#000000" points="976,-240 976,-261 1010,-261 1010,-240 976,-240"/>
<text text-anchor="start" x="988" y="-246.8" font-family="Times,serif" font-size="14.00" fill="#000000">4</text>
<polygon fill="none" stroke="#000000" points="1010,-240 1010,-261 1048,-261 1048,-240 1010,-240"/>
<text text-anchor="start" x="1013.5" y="-246.8" font-family="Times,serif" font-size="14.00" fill="#000000">u4le</text>
<polygon fill="none" stroke="#000000" points="1048,-240 1048,-261 1093,-261 1093,-240 1048,-240"/>
<text text-anchor="start" x="1051" y="-246.8" font-family="Times,serif" font-size="14.00" fill="#000000">value</text>
</g>
<!-- update_attributes__inst__fota -->
<g id="node7" class="node">
<title>update_attributes__inst__fota</title>
<polygon fill="#e0ffe0" stroke="transparent" points="1181.5,-250 1181.5,-271 1215.5,-271 1215.5,-250 1181.5,-250"/>
<polygon fill="none" stroke="#000000" points="1181.5,-250 1181.5,-271 1215.5,-271 1215.5,-250 1181.5,-250"/>
<text text-anchor="start" x="1191.5" y="-256.8" font-family="Times,serif" font-size="14.00" fill="#000000">id</text>
<polygon fill="#e0ffe0" stroke="transparent" points="1215.5,-250 1215.5,-271 1343.5,-271 1343.5,-250 1215.5,-250"/>
<polygon fill="none" stroke="#000000" points="1215.5,-250 1215.5,-271 1343.5,-271 1343.5,-250 1215.5,-250"/>
<text text-anchor="start" x="1260" y="-256.8" font-family="Times,serif" font-size="14.00" fill="#000000">value</text>
<polygon fill="none" stroke="#000000" points="1181.5,-229 1181.5,-250 1215.5,-250 1215.5,-229 1181.5,-229"/>
<text text-anchor="start" x="1184.5" y="-235.8" font-family="Times,serif" font-size="14.00" fill="#000000">fota</text>
<polygon fill="none" stroke="#000000" points="1215.5,-229 1215.5,-250 1343.5,-250 1343.5,-229 1215.5,-229"/>
<text text-anchor="start" x="1218.5" y="-235.8" font-family="Times,serif" font-size="14.00" fill="#000000">(value &amp; 1) == 1</text>
</g>
<!-- update_attributes__seq&#45;&gt;update_attributes__inst__fota -->
<g id="edge6" class="edge">
<title>update_attributes__seq:value_type&#45;&gt;update_attributes__inst__fota</title>
<path fill="none" stroke="#404040" d="M1093,-250C1115.6859,-250 1140.0796,-250 1163.0954,-250"/>
<polygon fill="#404040" stroke="#404040" points="1163.2127,-253.5001 1173.2126,-250 1163.2126,-246.5001 1163.2127,-253.5001"/>
</g>
<!-- update_attributes__inst__secure -->
<g id="node8" class="node">
<title>update_attributes__inst__secure</title>
<polygon fill="#e0ffe0" stroke="transparent" points="1145.5,-318 1145.5,-339 1199.5,-339 1199.5,-318 1145.5,-318"/>
<polygon fill="none" stroke="#000000" points="1145.5,-318 1145.5,-339 1199.5,-339 1199.5,-318 1145.5,-318"/>
<text text-anchor="start" x="1165.5" y="-324.8" font-family="Times,serif" font-size="14.00" fill="#000000">id</text>
<polygon fill="#e0ffe0" stroke="transparent" points="1199.5,-318 1199.5,-339 1380.5,-339 1380.5,-318 1199.5,-318"/>
<polygon fill="none" stroke="#000000" points="1199.5,-318 1199.5,-339 1380.5,-339 1380.5,-318 1199.5,-318"/>
<text text-anchor="start" x="1270.5" y="-324.8" font-family="Times,serif" font-size="14.00" fill="#000000">value</text>
<polygon fill="none" stroke="#000000" points="1145.5,-297 1145.5,-318 1199.5,-318 1199.5,-297 1145.5,-297"/>
<text text-anchor="start" x="1148.5" y="-303.8" font-family="Times,serif" font-size="14.00" fill="#000000">secure</text>
<polygon fill="none" stroke="#000000" points="1199.5,-297 1199.5,-318 1380.5,-318 1380.5,-297 1199.5,-297"/>
<text text-anchor="start" x="1202.5" y="-303.8" font-family="Times,serif" font-size="14.00" fill="#000000">(value &amp; (1 &lt;&lt; 1)) == 2</text>
</g>
<!-- update_attributes__seq&#45;&gt;update_attributes__inst__secure -->
<g id="edge7" class="edge">
<title>update_attributes__seq:value_type&#45;&gt;update_attributes__inst__secure</title>
<path fill="none" stroke="#404040" d="M1093,-250C1117.7137,-250 1114.8687,-273.0012 1137,-284 1140.5929,-285.7856 1144.2918,-287.4871 1148.0647,-289.1076"/>
<polygon fill="#404040" stroke="#404040" points="1146.9952,-292.4509 1157.5773,-292.9708 1149.6291,-285.9653 1146.9952,-292.4509"/>
</g>
<!-- partition__seq&#45;&gt;attributes__seq -->
<g id="edge8" class="edge">
<title>partition__seq:attributes_type&#45;&gt;attributes__seq</title>
<path fill="none" stroke="#000000" stroke-width="2" d="M893.5,-243C914.1571,-243 912.4906,-225.4159 929,-213 942.2988,-202.9986 957.1739,-192.7324 970.9408,-183.583"/>
<polygon fill="#000000" stroke="#000000" stroke-width="2" points="972.9225,-186.4687 979.3455,-178.0428 969.07,-180.6242 972.9225,-186.4687"/>
</g>
<!-- partition__seq&#45;&gt;update_attributes__seq -->
<g id="edge9" class="edge">
<title>partition__seq:update_attributes_type&#45;&gt;update_attributes__seq</title>
<path fill="none" stroke="#000000" stroke-width="2" d="M893.5,-222C913.7015,-222 934.9416,-226.6652 954.0853,-232.7686"/>
<polygon fill="#000000" stroke="#000000" stroke-width="2" points="952.9996,-236.0961 963.5936,-235.9697 955.2331,-229.4619 952.9996,-236.0961"/>
</g>
</g>
</svg>
