<?xml version="1.0" encoding="UTF-8" standalone="no"?>
<!DOCTYPE svg PUBLIC "-//W3C//DTD SVG 1.1//EN"
 "http://www.w3.org/Graphics/SVG/1.1/DTD/svg11.dtd">
<!-- Generated by graphviz version 2.40.1 (0)
 -->
<!-- Title: %3 Pages: 1 -->
<svg width="372pt" height="278pt"
 viewBox="0.00 0.00 372.00 278.00" xmlns="http://www.w3.org/2000/svg" xmlns:xlink="http://www.w3.org/1999/xlink">
<g id="graph0" class="graph" transform="scale(1 1) rotate(0) translate(4 274)">
<title>%3</title>
<polygon fill="#ffffff" stroke="transparent" points="-4,4 -4,-274 368,-274 368,4 -4,4"/>
<g id="clust1" class="cluster">
<title>cluster__samsung_signature</title>
<polygon fill="none" stroke="#000000" stroke-dasharray="1,5" points="8,-8 8,-262 356,-262 356,-8 8,-8"/>
<text text-anchor="middle" x="182" y="-246.8" font-family="Times,serif" font-size="14.00" fill="#000000">SamsungSignature</text>
</g>
<g id="clust2" class="cluster">
<title>cluster__samsung_signature</title>
<polygon fill="none" stroke="#000000" stroke-dasharray="1,5" points="16,-16 16,-231 348,-231 348,-16 16,-16"/>
<text text-anchor="middle" x="182" y="-215.8" font-family="Times,serif" font-size="14.00" fill="#000000">SamsungSignature::SamsungSignature</text>
</g>
<!-- samsung_signature__seq -->
<g id="node1" class="node">
<title>samsung_signature__seq</title>
<polygon fill="#e0ffe0" stroke="transparent" points="32,-175 32,-196 66,-196 66,-175 32,-175"/>
<polygon fill="none" stroke="#000000" points="32,-175 32,-196 66,-196 66,-175 32,-175"/>
<text text-anchor="start" x="36.5" y="-181.8" font-family="Times,serif" font-size="14.00" fill="#000000">pos</text>
<polygon fill="#e0ffe0" stroke="transparent" points="66,-175 66,-196 100,-196 100,-175 66,-175"/>
<polygon fill="none" stroke="#000000" points="66,-175 66,-196 100,-196 100,-175 66,-175"/>
<text text-anchor="start" x="69" y="-181.8" font-family="Times,serif" font-size="14.00" fill="#000000">size</text>
<polygon fill="#e0ffe0" stroke="transparent" points="100,-175 100,-196 178,-196 178,-175 100,-175"/>
<polygon fill="none" stroke="#000000" points="100,-175 100,-196 178,-196 178,-175 100,-175"/>
<text text-anchor="start" x="123" y="-181.8" font-family="Times,serif" font-size="14.00" fill="#000000">type</text>
<polygon fill="#e0ffe0" stroke="transparent" points="178,-175 178,-196 332,-196 332,-175 178,-175"/>
<polygon fill="none" stroke="#000000" points="178,-175 178,-196 332,-196 332,-175 178,-175"/>
<text text-anchor="start" x="248" y="-181.8" font-family="Times,serif" font-size="14.00" fill="#000000">id</text>
<polygon fill="none" stroke="#000000" points="32,-154 32,-175 66,-175 66,-154 32,-154"/>
<text text-anchor="start" x="44" y="-160.8" font-family="Times,serif" font-size="14.00" fill="#000000">0</text>
<polygon fill="none" stroke="#000000" points="66,-154 66,-175 100,-175 100,-154 66,-154"/>
<text text-anchor="start" x="73.5" y="-160.8" font-family="Times,serif" font-size="14.00" fill="#000000">16</text>
<polygon fill="none" stroke="#000000" points="100,-154 100,-175 178,-175 178,-154 100,-154"/>
<text text-anchor="start" x="103" y="-160.8" font-family="Times,serif" font-size="14.00" fill="#000000">str(ASCII)</text>
<polygon fill="none" stroke="#000000" points="178,-154 178,-175 332,-175 332,-154 178,-154"/>
<text text-anchor="start" x="209.5" y="-160.8" font-family="Times,serif" font-size="14.00" fill="#000000">signer_name</text>
<polygon fill="none" stroke="#000000" points="32,-133 32,-154 66,-154 66,-133 32,-133"/>
<text text-anchor="start" x="39.5" y="-139.8" font-family="Times,serif" font-size="14.00" fill="#000000">16</text>
<polygon fill="none" stroke="#000000" points="66,-133 66,-154 100,-154 100,-133 66,-133"/>
<text text-anchor="start" x="73.5" y="-139.8" font-family="Times,serif" font-size="14.00" fill="#000000">16</text>
<polygon fill="none" stroke="#000000" points="100,-133 100,-154 178,-154 178,-133 100,-133"/>
<text text-anchor="start" x="103" y="-139.8" font-family="Times,serif" font-size="14.00" fill="#000000">str(ASCII)</text>
<polygon fill="none" stroke="#000000" points="178,-133 178,-154 332,-154 332,-133 178,-133"/>
<text text-anchor="start" x="217" y="-139.8" font-family="Times,serif" font-size="14.00" fill="#000000">signer_ver</text>
<polygon fill="none" stroke="#000000" points="32,-112 32,-133 66,-133 66,-112 32,-112"/>
<text text-anchor="start" x="39.5" y="-118.8" font-family="Times,serif" font-size="14.00" fill="#000000">32</text>
<polygon fill="none" stroke="#000000" points="66,-112 66,-133 100,-133 100,-112 66,-112"/>
<text text-anchor="start" x="73.5" y="-118.8" font-family="Times,serif" font-size="14.00" fill="#000000">32</text>
<polygon fill="none" stroke="#000000" points="100,-112 100,-133 178,-133 178,-112 100,-112"/>
<text text-anchor="start" x="103" y="-118.8" font-family="Times,serif" font-size="14.00" fill="#000000">str(ASCII)</text>
<polygon fill="none" stroke="#000000" points="178,-112 178,-133 332,-133 332,-112 178,-112"/>
<text text-anchor="start" x="207.5" y="-118.8" font-family="Times,serif" font-size="14.00" fill="#000000">firmware_ver</text>
<polygon fill="none" stroke="#000000" points="32,-91 32,-112 66,-112 66,-91 32,-91"/>
<text text-anchor="start" x="39.5" y="-97.8" font-family="Times,serif" font-size="14.00" fill="#000000">64</text>
<polygon fill="none" stroke="#000000" points="66,-91 66,-112 100,-112 100,-91 66,-91"/>
<text text-anchor="start" x="73.5" y="-97.8" font-family="Times,serif" font-size="14.00" fill="#000000">16</text>
<polygon fill="none" stroke="#000000" points="100,-91 100,-112 178,-112 178,-91 100,-91"/>
<text text-anchor="start" x="103" y="-97.8" font-family="Times,serif" font-size="14.00" fill="#000000">str(ASCII)</text>
<polygon fill="none" stroke="#000000" points="178,-91 178,-112 332,-112 332,-91 178,-91"/>
<text text-anchor="start" x="181" y="-97.8" font-family="Times,serif" font-size="14.00" fill="#000000">firmware_timestamp</text>
<polygon fill="none" stroke="#000000" points="32,-70 32,-91 66,-91 66,-70 32,-70"/>
<text text-anchor="start" x="39.5" y="-76.8" font-family="Times,serif" font-size="14.00" fill="#000000">80</text>
<polygon fill="none" stroke="#000000" points="66,-70 66,-91 100,-91 100,-70 66,-70"/>
<text text-anchor="start" x="73.5" y="-76.8" font-family="Times,serif" font-size="14.00" fill="#000000">32</text>
<polygon fill="none" stroke="#000000" points="100,-70 100,-91 178,-91 178,-70 100,-70"/>
<text text-anchor="start" x="103" y="-76.8" font-family="Times,serif" font-size="14.00" fill="#000000">str(ASCII)</text>
<polygon fill="none" stroke="#000000" points="178,-70 178,-91 332,-91 332,-70 178,-70"/>
<text text-anchor="start" x="208" y="-76.8" font-family="Times,serif" font-size="14.00" fill="#000000">phone_model</text>
<polygon fill="none" stroke="#000000" points="32,-49 32,-70 66,-70 66,-49 32,-49"/>
<text text-anchor="start" x="35" y="-55.8" font-family="Times,serif" font-size="14.00" fill="#000000">112</text>
<polygon fill="none" stroke="#000000" points="66,-49 66,-70 100,-70 100,-49 66,-49"/>
<text text-anchor="start" x="73.5" y="-55.8" font-family="Times,serif" font-size="14.00" fill="#000000">16</text>
<polygon fill="none" stroke="#000000" points="100,-49 100,-70 178,-70 178,-49 100,-49"/>
<text text-anchor="start" x="103" y="-55.8" font-family="Times,serif" font-size="14.00" fill="#000000">str(ASCII)</text>
<polygon fill="none" stroke="#000000" points="178,-49 178,-70 332,-70 332,-49 178,-49"/>
<text text-anchor="start" x="229.5" y="-55.8" font-family="Times,serif" font-size="14.00" fill="#000000">board1</text>
<polygon fill="none" stroke="#000000" points="32,-28 32,-49 66,-49 66,-28 32,-28"/>
<text text-anchor="start" x="35" y="-34.8" font-family="Times,serif" font-size="14.00" fill="#000000">128</text>
<polygon fill="none" stroke="#000000" points="66,-28 66,-49 100,-49 100,-28 66,-28"/>
<text text-anchor="start" x="73.5" y="-34.8" font-family="Times,serif" font-size="14.00" fill="#000000">16</text>
<polygon fill="none" stroke="#000000" points="100,-28 100,-49 178,-49 178,-28 100,-28"/>
<text text-anchor="start" x="103" y="-34.8" font-family="Times,serif" font-size="14.00" fill="#000000">str(ASCII)</text>
<polygon fill="none" stroke="#000000" points="178,-28 178,-49 332,-49 332,-28 178,-28"/>
<text text-anchor="start" x="229.5" y="-34.8" font-family="Times,serif" font-size="14.00" fill="#000000">board2</text>
</g>
</g>
</svg>
